<?xml version="1.0" encoding="UTF-8"?>
<svg id="Layer_1" xmlns="http://www.w3.org/2000/svg" version="1.1" viewBox="0 0 1506.6 188.8">
  <!-- Generator: Adobe Illustrator 29.5.1, SVG Export Plug-In . SVG Version: 2.1.0 Build 141)  -->
  <defs>
    <style>
      .st0 {
        fill: #784d92;
      }

      .st1 {
        fill: #a6c87c;
      }
    </style>
  </defs>
  <g>
    <path class="st1" d="M37,144.3c-10.3,0-19.1-4.1-26.2-12.1C3.6,124,0,113.8,0,101.8s3.7-22.5,11-30.5c7.2-8,16.4-12,27.3-12s9.1,1,12.7,2.9c3.7,1.9,7.2,5.1,10.6,9.4l.4.5h4.5V4.1h-13.6V1.7h12.1c2.7,0,6.2-.2,10.2-.5,3.7-.3,7.5-.7,11.4-1.2v138.9h13.6v2.3h-12.3c-2.7,0-6.1.2-10.1.5-3.6.3-7.4.7-11.4,1.2v-11.4h-4.9l-.4.5c-3.1,4.1-6.7,7.2-10.7,9.2-4,2-8.5,3-13.5,3ZM40.1,61.2c-6.4,0-10.9,2-13.6,5.9-2.6,3.8-3.9,10.7-3.9,20.8v29.7c0,8.4,1.2,14.4,3.7,18.3,2.6,4,6.7,6,12.4,6s14.1-2.8,19.5-8.4c5.4-5.6,8.1-12.6,8.1-20.9v-22.9c0-7.1-2.7-13.7-8.1-19.6-5.4-5.9-11.5-8.9-18-8.9Z"/>
    <path class="st1" d="M143.9,143.1c-8.3,0-14.6-1.9-18.6-5.7-4-3.8-6-9.6-6-17.4v-.7h0c-.1-1.2-.2-2.2-.2-3.1v-52.7h-13.6v-2.3h12.1c2.6,0,6-.2,10.1-.5,3.6-.3,7.5-.7,11.6-1.2v59.5c0,7,.7,11.7,2.3,14.6,1.6,3,4.5,4.5,8.5,4.5,7,0,13.3-3.4,18.6-10.2,5.3-6.7,7.9-14.6,7.9-23.4v-41h-13.4v-2.3h11.9c2.8,0,6.2-.2,10.3-.5,3.6-.3,7.5-.7,11.6-1.2v79.3h14v2.6h-12.3c-3.6,0-7.3.1-11.1.4-3.4.2-6.9.6-10.6,1.1v-18.7h-3.8l-.4.6c-3.9,6.4-8.2,11.1-12.9,14.1-4.6,2.9-10,4.4-16,4.4Z"/>
    <path class="st1" d="M283.3,141.2v-2.3h12.7v-60.3c0-5.5-.8-9.1-2.5-11.1-1.7-2.1-4.7-3.1-8.9-3.1-6.5,0-12.6,3.5-17.9,10.4-5.3,6.8-7.9,14.6-7.9,23.1v41h13.4v2.3h-47.9v-2.3h14.4V63.5h-14.4v-2.3h12.3c2.7,0,6.1-.2,10.2-.5,3.6-.3,7.4-.7,11.5-1.2v18.9h3.9l.4-.6c3.9-6.4,8.2-11.1,12.9-14.1,4.6-2.9,10-4.4,16-4.4s14.6,2,18.7,5.8c4.1,3.8,6.2,9.7,6.2,17.5v56.3h13.2v2.3h-46.1Z"/>
    <path class="st1" d="M401.3,141.2v-2.3h12.7v-60.3c0-5.5-.8-9.1-2.5-11.1-1.7-2.1-4.7-3.1-8.9-3.1-6.5,0-12.6,3.5-17.9,10.4-5.3,6.8-7.9,14.6-7.9,23.1v41h13.4v2.3h-47.9v-2.3h14.4V63.5h-14.4v-2.3h12.3c2.7,0,6.1-.2,10.2-.5,3.6-.3,7.4-.7,11.5-1.2v18.9h3.9l.4-.6c3.9-6.4,8.2-11.1,12.9-14.1,4.6-2.9,10-4.4,16-4.4s14.6,2,18.7,5.8c4.1,3.8,6.2,9.7,6.2,17.5v56.3h13.2v2.3h-46.1Z"/>
    <path class="st0" d="M569.9,141.2v-2.3h11.3v-57.8c0-5.6-.7-9.4-2.2-11.6-1.6-2.4-4.1-3.6-7.6-3.6-6.2,0-11.8,3.5-16.6,10.4-4.7,6.8-7.1,14.5-7.1,23.1v39.5h11.8v2.3h-42.9v-2.3h11.2v-57.8c0-5.8-.7-9.6-2.2-11.8-1.6-2.3-4.3-3.4-8.1-3.4-5.9,0-11.3,3.5-16.1,10.4-4.7,6.8-7.1,14.5-7.1,23.1v39.5h11.7v2.3h-45.7v-2.3h14.2V63.5h-14.2v-2.3h12.3c2.7,0,6.1-.2,10.2-.5,3.6-.3,7.4-.7,11.5-1.2v18.9h3.9l.4-.6c3.6-6,7.9-10.7,12.6-13.8,4.7-3.1,9.8-4.7,15.1-4.7s10.1,1.7,14,4.9c3.9,3.3,6.4,7.7,7.3,13.1l.2,1h3.6l.4-.6c3.6-6,7.9-10.7,12.6-13.8,4.7-3.1,9.8-4.7,15.1-4.7s13,2.1,16.4,6.2c3.4,4.2,5.2,11.2,5.2,20.7v52.7h11.6v2.3h-42.9Z"/>
    <path class="st0" d="M692.6,144.3c-3.7,0-6.8-1-9.1-3.1-2.3-2.1-4.1-5.4-5.2-9.8l-.2-1h-2.7l-.4.5c-3.7,4.5-8,7.8-12.6,10-4.6,2.2-9.9,3.3-15.6,3.3s-12.2-1.8-15.8-5.2c-3.5-3.5-5.3-8.6-5.3-15.4s3.8-14.1,11.8-19.2c8-5.2,18.3-7.8,30.5-7.8h9.8v-14.2c0-8.7-1-14.1-3.2-16.6-2.1-2.5-5.9-3.8-11.3-3.8s-8.8.6-12,1.9c-3.6,1.4-5.4,3.2-5.4,5.3s0,.7,2,4.1c1.1,1.9,1.6,3.8,1.6,5.8s-.8,4.3-2.4,5.8c-1.6,1.5-3.7,2.2-6.3,2.2s-5.1-.7-6.6-2.2-2.2-3.6-2.2-6.5c0-5.3,2.9-9.7,8.8-13.4,6.1-3.8,13.9-5.7,23.3-5.7s11.3.5,16.2,1.6c4.8,1,8.4,2.4,10.9,4.1,2.1,1.4,3.6,3.2,4.4,5.2.8,2.1,1.2,6.5,1.2,13.2v47.7c0,1.6.8,3,2.3,4.2,1.4,1.1,3,1.7,4.8,1.7s2.4-.5,3.8-1.5c.9-.7,1.9-1.5,2.8-2.5l1,1.1c-1.9,3.1-4.4,5.5-7.5,7.3-3.4,2-7.2,2.9-11.4,2.9ZM676.4,98.5c-10.5.1-18.5,1.9-23.6,5.3-5.4,3.5-8.1,8.8-8.1,15.8s1.4,9.1,4.1,12c2.8,2.9,6.6,4.3,11.5,4.3s9.3-2,12.6-6c3.2-3.9,4.9-8.8,4.9-14.6v-16.8c-.1,0-1.4,0-1.4,0Z"/>
    <path class="st0" d="M725.4,141.2v-2.3h14.4V63.5h-14.4v-2.3h12.3c2.6,0,6-.2,10.1-.5,3.6-.3,7.4-.7,11.5-1.2v20.5h3.8l.4-.7c3.4-6.7,7.5-11.8,12.1-15.1,4.5-3.2,9.8-4.9,15.5-4.9s7.9,1.1,10.4,3.4c2.5,2.2,3.8,5.2,3.8,9s-.9,5.7-2.6,7.7c-1.7,1.9-4,2.8-6.9,2.8s-6.3-.7-8.1-2.2c-1.7-1.4-2.6-3.5-2.6-6.4v-1.9c0-1.7-.2-2.9-.7-3.8-.6-1.1-1.5-1.7-2.7-1.7-5.3,0-10.4,3.4-15,10.1-4.6,6.6-6.9,13.9-6.9,21.7v41h18.7v2.3h-53.1Z"/>
    <path class="st0" d="M868.5,141.2v-2.3h12.8l-32.5-42.3,33.9-33.1h-19.5v-2.3h42.5v2.3h-18.5l-22.9,22.2,41,53.2h6.6v2.3h-43.4ZM808.3,141.2v-2.3h16.3V4.1h-16.3V1.7h14.6c2.7,0,6.2-.2,10.3-.5,3.7-.3,7.5-.7,11.5-1.2v138.9h14.6v2.3h-51Z"/>
    <path class="st0" d="M958.9,144.3c-11.2,0-20.7-3.9-28.2-11.7-7.5-7.8-11.3-17.4-11.3-28.7s3.9-22.7,11.6-31.5c7.7-8.7,17-13.1,27.9-13.1s19.7,3.3,26.7,9.9c7,6.6,10.6,14.9,10.6,24.9v.6h-54.3v26.6c0,6.1,1.8,11.1,5.4,14.8,3.6,3.7,8.5,5.6,14.5,5.6s14-2.3,19.8-6.9c5.5-4.4,9.4-10.3,11.8-17.6h2.5c-2.6,8.7-6.9,15.3-12.8,19.8-6.2,4.8-14.4,7.2-24.1,7.2ZM958.5,61.8c-5.4,0-9.6,1.4-12.4,4.3-2.8,2.8-4.2,7-4.2,12.6v12.7h33.1v-12.7c0-5.6-1.4-9.9-4.1-12.7-2.7-2.8-6.9-4.2-12.4-4.2Z"/>
    <path class="st0" d="M1039.3,144.3c-7,0-12.1-1.3-14.9-3.8-2.8-2.5-4.2-6.9-4.2-13.2v-63.8h-13.8v-2.3h14.4v-22.7h6.2c1.7,0,3.8-.2,6.1-.6,1.9-.3,4-.8,6.3-1.3v24.6h20.2v2.3h-20.2v62.2c0,4.3.8,7.3,2.5,9.2,1.7,1.9,4.4,2.9,8.1,2.9s5.4-1.1,7.8-3.2c2-1.8,3.7-4.2,4.9-7.1l1.8.7c-1.3,4.6-4,8.4-8.2,11.3-4.6,3.1-10.3,4.7-16.8,4.7Z"/>
    <path class="st0" d="M1074.7,141.2v-2.3h16.3V63.5h-13.8v-2.3h12.1c2.7,0,6.1-.2,10.2-.5,3.6-.3,7.4-.7,11.4-1.2v79.5h15.3v2.3h-51.6ZM1099,28.2c-3.1,0-5.6-1-7.7-3.1-2.1-2.1-3.1-4.6-3.1-7.7s1-5.6,3.1-7.7c2.1-2.1,4.6-3.1,7.7-3.1s5.6,1,7.7,3.2c2.1,2.1,3.2,4.6,3.2,7.7s-1,5.6-3.2,7.7c-2.1,2.1-4.7,3.1-7.7,3.1Z"/>
    <path class="st0" d="M1197.2,141.2v-2.3h12.7v-60.3c0-5.5-.8-9.1-2.5-11.1-1.7-2.1-4.7-3.1-8.9-3.1-6.5,0-12.6,3.5-17.9,10.4-5.3,6.8-7.9,14.6-7.9,23.1v41h13.4v2.3h-47.9v-2.3h14.4V63.5h-14.4v-2.3h12.3c2.7,0,6.1-.2,10.2-.5,3.6-.3,7.4-.7,11.5-1.2v18.9h3.9l.4-.6c3.9-6.4,8.2-11.1,12.9-14.1,4.6-2.9,10-4.4,16-4.4s14.6,2,18.7,5.8c4.1,3.8,6.2,9.7,6.2,17.5v56.3h13.2v2.3h-46.1Z"/>
    <path class="st0" d="M1291.6,191.3c-10.1,0-18.5-2.2-25-6.5-6.5-4.2-9.6-9.3-9.6-15.4s.9-6.8,2.7-9.3c1.8-2.6,5.2-5.1,10-7.7l.7-.4v-3.8l-.9-.3c-3.9-1.2-6.9-3.3-8.9-6.2-2.1-2.9-3.1-6.5-3.1-10.7s1.3-9.7,4-12.9c2.6-3.2,7-5.5,12.9-6.8l1-.2v-3.9l-.6-.4c-4.3-2.8-7.5-5.9-9.4-9.3-2-3.4-2.9-7.4-2.9-11.9,0-7.2,2.9-13.5,8.7-18.7,5.8-5.2,12.9-7.9,21.3-7.9s8.9.8,12.7,2.3c3.8,1.5,7.4,3.9,10.7,7.1l1,1,.9-1.1c2.5-3.4,4.9-5.8,7.2-7.2,2.2-1.4,4.6-2,7.2-2s4.9.6,6.4,1.8c1.4,1.2,2.1,2.8,2.1,5s-.5,3.8-1.4,4.8c-.9,1-2.3,1.5-4.3,1.5s-3.8-.9-5.2-2.7c-2.4-3.1-3.2-3.7-4-3.7-1.3,0-2.6.5-4,1.3-1.3.9-2.4,2-3.3,3.3l-.5.7.5.7c1.9,2.8,3.2,5.4,3.9,7.7.7,2.3,1.1,5,1.1,8,0,8-2.8,14.2-8.7,19-5.9,4.7-14,7.1-24.1,7.1s-2.6,0-4.9-.1c-2.3,0-4-.1-5.2-.1-5.7,0-10.2.9-13.5,2.6-3.5,1.9-5.2,4.5-5.2,8s1,4.9,3,6.1c1.8,1.1,4.8,1.7,8.9,1.7s5.1,0,6.6,0c1.6,0,2.9,0,4.2-.2l17.9-.8c1.8,0,3.5-.1,5-.2,1.5,0,2.9,0,4.3,0,9.4,0,15.9,1.7,19.5,5,3.6,3.3,5.4,9.2,5.4,17.5s-4.1,20.6-12.3,27.5c-8.2,7-19.2,10.5-32.7,10.5ZM1292.2,149.8c-.5,0-2.5,0-6.5.2-3.9.1-7.7.2-11.3.3h-.6s-.4.5-.4.5c-1.6,2.1-2.9,4.6-3.7,7.6-.8,2.9-1.2,6.2-1.2,9.8,0,6.5,2.4,11.6,7.2,15.3,4.7,3.6,11.2,5.4,19.3,5.4s18.4-2.8,25.4-8.3c7.1-5.6,10.7-12.5,10.7-20.5s-1.3-6.8-3.8-8.7c-2.5-1.8-6-2.7-10.8-2.7h-2.5s-21.8,1.2-21.8,1.2ZM1292.4,61.2c-4.9,0-8.3,1.1-10.2,3.4-1.9,2.2-2.8,6-2.8,11.7v20.6c0,5.6.9,9.4,2.8,11.6,1.9,2.3,5.3,3.4,10.2,3.4s8.3-1.2,10.3-3.4c1.9-2.3,2.9-6.1,2.9-11.6v-20.6c0-5.5-.9-9.3-2.9-11.6-2-2.3-5.4-3.4-10.3-3.4Z"/>
  </g>
  <g>
    <polygon class="st1" points="1401.2 .6 1496.3 95.6 1401.1 190.8 1411.5 190.8 1506.6 95.6 1411.6 .6 1401.2 .6"/>
    <polygon class="st1" points="1482.5 95.6 1385.2 .6 1476.8 95.6 1385.1 190.8 1482.5 95.6"/>
    <polygon class="st0" points="1444.8 95.6 1347.5 .6 1440.2 95.6 1347.4 190.8 1444.8 95.6"/>
    <polygon class="st0" points="1369.1 .6 1464.2 95.6 1369 190.8 1358.7 190.8 1453.9 95.6 1358.8 .6 1369.1 .6"/>
  </g>
</svg>